<svg xmlns="http://www.w3.org/2000/svg" viewBox="0 0 980 584" font-family="-apple-system, BlinkMacSystemFont, &#39;Segoe UI&#39;, Roboto, sans-serif" role="img" aria-label="RRSF facet sidecar layout">
  <defs>
    
    <marker id="arr" markerWidth="9" markerHeight="9" refX="7" refY="4" orient="auto">
      <path d="M0,0 L8,4 L0,8 z" fill="#475569"></path>
    </marker>
  </defs>

  <text x="32" y="38" class="title">Facet sidecar — companion file (<tspan class="mono">.rrf</tspan>)</text>
  <text x="32" y="60" class="sub">categorical filters (year, type, language, …) with free counts — same range-fetch model as the index</text>

  
  <rect x="32" y="524" width="12" height="12" rx="3" fill="#3b5bdb"></rect>
  <text x="50" y="534" class="note">loaded at boot</text>
  <rect x="180" y="524" width="12" height="12" rx="3" fill="#64748b"></rect>
  <text x="198" y="534" class="note">range-fetched on demand</text>

  
  <g>
    <rect x="32" y="86" width="84" height="56" rx="6" fill="#3b5bdb"></rect>
    <rect x="120" y="86" width="120" height="56" rx="6" fill="#3b5bdb"></rect>
    <rect x="244" y="86" width="300" height="56" rx="6" fill="#3b5bdb"></rect>
    <rect x="548" y="86" width="110" height="56" rx="6" fill="#3b5bdb"></rect>
    <rect x="662" y="86" width="286" height="56" rx="6" fill="#64748b"></rect>
    <text x="74" y="112" class="seg" text-anchor="middle">Header</text>
    <text x="74" y="128" class="seg mono" text-anchor="middle" font-size="11">24 B</text>
    <text x="180" y="112" class="seg" text-anchor="middle">Field table</text>
    <text x="180" y="128" class="seg mono" text-anchor="middle" font-size="11">16 B/field</text>
    <text x="394" y="112" class="seg" text-anchor="middle">Category table</text>
    <text x="394" y="128" class="seg mono" text-anchor="middle" font-size="11">36 B/category, key-sorted</text>
    <text x="603" y="112" class="seg" text-anchor="middle">Strings</text>
    <text x="603" y="128" class="seg mono" text-anchor="middle" font-size="11">names</text>
    <text x="805" y="112" class="seg" text-anchor="middle">Postings</text>
    <text x="805" y="128" class="seg mono" text-anchor="middle" font-size="11">per category, range-fetched</text>
  </g>

  
  <text x="32" y="172" class="lbl mono">magic &#34;RRSF&#34; · ver · #fields · #cats · strBytes</text>
  <text x="120" y="190" class="note">Header + tables + strings (a few KB) load once at boot →</text>
  <text x="120" y="206" class="note">listing categories and their full-corpus counts is then free.</text>

  
  <line x1="394" y1="142" x2="324" y2="250" stroke="#3b5bdb" stroke-width="1.5"></line>
  <rect x="120" y="250" width="408" height="112" rx="8" fill="#eef0fd" stroke="#3b5bdb"></rect>
  <text x="136" y="271" class="lbl" font-weight="700">one category entry (36 B)</text>
  <text x="136" y="291" class="lbl mono" font-size="12">key u64 · headOff u64 · headSize u32 · tailSize u32</text>
  <text x="136" y="309" class="lbl mono" font-size="12">cardinality u32 · nameOff u32 · nameLen u16</text>
  <rect x="132" y="322" width="384" height="30" rx="5" fill="#dbe3fb"></rect>
  <text x="142" y="342" class="note" font-weight="700">cardinality = full-corpus doc count → facet counts are free (no fetch)</text>

  
  <line x1="805" y1="142" x2="805" y2="250" stroke="#64748b" stroke-width="1.5" marker-end="url(#arr)"></line>
  <rect x="556" y="250" width="392" height="150" rx="8" fill="#f1f5f9" stroke="#64748b"></rect>
  <text x="572" y="272" class="lbl" font-weight="700">per category: <tspan class="mono">[ head ][ tail ]</tspan></text>
  <rect x="572" y="284" width="150" height="40" rx="5" fill="#64748b"></rect>
  <text x="647" y="303" class="seg" text-anchor="middle" font-size="12">head</text>
  <text x="647" y="318" class="seg mono" text-anchor="middle" font-size="10">docs [0, headBoundary)</text>
  <rect x="726" y="284" width="206" height="40" rx="5" fill="#94a3b8"></rect>
  <text x="829" y="303" class="seg" text-anchor="middle" font-size="12">tail</text>
  <text x="829" y="318" class="seg mono" text-anchor="middle" font-size="10">docs ≥ headBoundary</text>
  <text x="572" y="346" class="note" font-size="12">Split at a fixed <tspan class="mono" fill="#3b5bdb">64K-doc</tspan> bucket boundary — a multiple of</text>
  <text x="572" y="362" class="note" font-size="12">65,536 (default 65,536), raised for larger corpora.</text>
  <text x="572" y="382" class="note" font-size="12">A ≤ ~8 KB head per category; tails only when paging in.</text>

  
  <rect x="32" y="410" width="916" height="68" rx="8" fill="#f8fafc" stroke="#cbd5e1"></rect>
  <text x="48" y="432" class="note" font-weight="700">Filter semantics — mirrors a BitmapFilter.</text>
  <text x="48" y="450" class="note">Within a field, selected categories OR together; distinct fields AND. Result = textMatch AND filter, applied to the head first.</text>
  <text x="48" y="468" class="note">Live (search-filtered) counts = |resultBitmap ∩ categoryHead|, computed in memory over the query&#39;s head result.</text>

  <text x="32" y="506" class="sub">Doc IDs share the index&#39;s popularity order, so facet postings split at the same 64K-doc container boundary and range-fetch the same way (see <tspan class="mono">format.svg</tspan>).</text>

  <text x="32" y="568" class="note" font-size="11"><tspan font-weight="700" fill="#3b5bdb">Rust</tspan>  <tspan class="mono">write  build::write_facets(w, fields)      read  FacetIndex::open(f).counts(result)</tspan></text>
</svg>