<svg xmlns="http://www.w3.org/2000/svg" viewBox="0 0 720 336" font-family="-apple-system, BlinkMacSystemFont, 'Segoe UI', Roboto, sans-serif" role="img" aria-label="RRS index file format">
  <defs>
    <style>
      .lbl{font-size:13px;font-weight:700;fill:#1a1d24}
      .sub{font-size:11px;fill:#5b6472}
      .byte{font-size:10.5px;font-family:ui-monospace,SFMono-Regular,Menlo,monospace;fill:#8b94a3}
      .seg{font-size:12px;font-weight:600;fill:#fff}
      .note{font-size:11px;fill:#5b6472}
    </style>
  </defs>

  <text x="20" y="28" class="lbl">RRS index — one static file, fetched by byte range</text>

  <!-- file layout bar: colour encodes WHEN each part is fetched -->
  <!-- indigo = loaded once at boot · slate = range-fetched on demand per query -->
  <g>
    <rect x="20" y="44" width="90" height="48" rx="5" fill="#3b5bdb"/>
    <text x="65" y="72" text-anchor="middle" class="seg">header</text>

    <rect x="114" y="44" width="150" height="48" rx="5" fill="#3b5bdb"/>
    <text x="189" y="68" text-anchor="middle" class="seg">sparse</text>
    <text x="189" y="82" text-anchor="middle" class="seg">index</text>

    <rect x="268" y="44" width="180" height="48" rx="5" fill="#64748b"/>
    <text x="358" y="68" text-anchor="middle" class="seg">dictionary</text>
    <text x="358" y="82" text-anchor="middle" class="seg">(key-sorted)</text>

    <rect x="452" y="44" width="248" height="48" rx="5" fill="#64748b"/>
    <text x="576" y="72" text-anchor="middle" class="seg">postings (head ∥ tail)</text>
  </g>

  <!-- colour legend -->
  <rect x="20" y="102" width="12" height="12" rx="3" fill="#3b5bdb"/>
  <text x="38" y="112" class="note">loaded once at boot</text>
  <rect x="170" y="102" width="12" height="12" rx="3" fill="#64748b"/>
  <text x="188" y="112" class="note">range-fetched on demand, per query</text>

  <!-- boot vs query callouts -->
  <text x="20" y="148" class="lbl" fill="#3b5bdb">boot: fetch once</text>
  <rect x="20" y="156" width="244" height="3" fill="#3b5bdb"/>
  <text x="20" y="178" class="note">header + sparse index → ~tens of KB,</text>
  <text x="20" y="194" class="note">kept in memory for the whole session</text>

  <text x="360" y="148" class="lbl" fill="#64748b">per query: range reads</text>
  <rect x="360" y="156" width="340" height="3" fill="#64748b"/>
  <text x="360" y="178" class="note">binary-search sparse → fetch one dict block,</text>
  <text x="360" y="194" class="note">then the head postings for each trigram</text>

  <!-- postings: head/tail split (within the slate "postings" segment) -->
  <text x="20" y="232" class="lbl">postings: doc IDs in popularity order</text>
  <rect x="20" y="244" width="680" height="40" rx="5" fill="#f1f5f9" stroke="#cbd5e1"/>
  <rect x="20" y="244" width="180" height="40" rx="5" fill="#cbd5e1"/>
  <text x="110" y="269" text-anchor="middle" class="note">head: top 65,536 ranked</text>
  <text x="450" y="269" text-anchor="middle" class="note">tail: the rest, fetched only when paging deeper</text>

  <text x="20" y="318" class="note" font-size="11"><tspan font-weight="700" fill="#3b5bdb">Rust</tspan>  <tspan class="mono">write  build::write_index(w, gram, stride, entries)      read  Index::open(f).search(q, limit)</tspan></text>
</svg>
