<svg xmlns="http://www.w3.org/2000/svg" viewBox="0 0 980 540" font-family="system-ui, -apple-system, &#39;Segoe UI&#39;, Roboto, sans-serif" role="img" aria-label="RRS text index file format, RRSI v3">
  <defs>
    <marker id="arF" markerWidth="9" markerHeight="9" refX="7" refY="4" orient="auto">
      <path d="M0,0 L8,4 L0,8 z" fill="#475569"></path>
    </marker>
  </defs>

  <text x="32" y="38" class="title">Text index — one static file (<tspan class="mono">.rrs</tspan>)</text>
  <text x="32" y="60" class="sub">a trigram dictionary + one roaring posting per term, paged by popularity-ordered container buckets; a few small ranged reads per query, independent of corpus size</text>

  <rect x="648" y="26" width="12" height="12" rx="3" fill="#3b5bdb"></rect>
  <text x="666" y="36" class="note">loaded at boot</text>
  <rect x="792" y="26" width="12" height="12" rx="3" fill="#64748b"></rect>
  <text x="810" y="36" class="note">range-fetched</text>


  <g>
    <rect x="32" y="86" width="110" height="56" rx="6" fill="#3b5bdb"></rect>
    <rect x="146" y="86" width="170" height="56" rx="6" fill="#3b5bdb"></rect>
    <rect x="320" y="86" width="230" height="56" rx="6" fill="#64748b"></rect>
    <rect x="554" y="86" width="394" height="56" rx="6" fill="#64748b"></rect>
    <text x="87" y="112" class="seg" text-anchor="middle">Header</text>
    <text x="87" y="128" class="seg mono" text-anchor="middle" font-size="11">16 B</text>
    <text x="231" y="112" class="seg" text-anchor="middle">Sparse index</text>
    <text x="231" y="128" class="seg mono" text-anchor="middle" font-size="11">8 B × ⌈ngrams/stride⌉</text>
    <text x="435" y="112" class="seg" text-anchor="middle">Dictionary</text>
    <text x="435" y="128" class="seg mono" text-anchor="middle" font-size="11">20 B/entry · key-sorted</text>
    <text x="751" y="112" class="seg" text-anchor="middle">Postings</text>
    <text x="751" y="128" class="seg mono" text-anchor="middle" font-size="11">per trigram · one roaring bitmap</text>
  </g>
  <text x="32" y="172" class="lbl mono">magic &#34;RRSI&#34; · version 3 · gramSize · ngrams · stride</text>


  <line x1="435" y1="142" x2="256" y2="210" stroke="#64748b" stroke-width="1.5"></line>
  <rect x="32" y="210" width="448" height="152" rx="8" fill="#eef0fd" stroke="#3b5bdb"></rect>
  <text x="48" y="236" class="lbl" font-weight="700">one dictionary entry — 20 B, sorted by key</text>
  <g>
    <rect x="48" y="252" width="180" height="46" rx="5" fill="#fff" stroke="#b9c5f5"></rect>
    <text x="138" y="274" class="note mono" text-anchor="middle" font-size="12">key</text>
    <text x="138" y="290" class="note mono" text-anchor="middle" font-size="10" fill="#94a3b8">u64 · 8 B</text>
    <rect x="232" y="252" width="138" height="46" rx="5" fill="#fff" stroke="#b9c5f5"></rect>
    <text x="301" y="274" class="note mono" text-anchor="middle" font-size="12">offset</text>
    <text x="301" y="290" class="note mono" text-anchor="middle" font-size="10" fill="#94a3b8">u64 · 8 B</text>
    <rect x="374" y="252" width="90" height="46" rx="5" fill="#fff" stroke="#b9c5f5"></rect>
    <text x="419" y="274" class="note mono" text-anchor="middle" font-size="12">size</text>
    <text x="419" y="290" class="note mono" text-anchor="middle" font-size="10" fill="#94a3b8">u32</text>
  </g>
  <rect x="48" y="306" width="416" height="52" rx="5" fill="#dbe3fb"></rect>
  <text x="60" y="326" class="note" font-size="12">the term's posting at <tspan class="mono">[ offset, offset + size )</tspan></text>
  <text x="60" y="346" class="note" font-size="12">one portable RoaringBitmap — no separate head/tail (v3)</text>


  <line x1="751" y1="142" x2="751" y2="210" stroke="#64748b" stroke-width="1.5" marker-end="url(#arF)"></line>
  <rect x="496" y="210" width="452" height="152" rx="8" fill="#f1f5f9" stroke="#64748b"></rect>
  <text x="512" y="236" class="lbl" font-weight="700">one posting — a RoaringBitmap of 64K-doc buckets</text>
  <rect x="512" y="252" width="160" height="46" rx="5" fill="#64748b"></rect>
  <text x="592" y="272" class="seg" text-anchor="middle" font-size="12">bucket 0</text>
  <text x="592" y="288" class="seg mono" text-anchor="middle" font-size="9.5">docs [0, 65536) · eager prefix</text>
  <rect x="676" y="252" width="256" height="46" rx="5" fill="#94a3b8"></rect>
  <text x="804" y="272" class="seg" text-anchor="middle" font-size="12">buckets 1 … N</text>
  <text x="804" y="288" class="seg mono" text-anchor="middle" font-size="9.5">paged on demand (TailScan)</text>
  <text x="512" y="324" class="note" font-size="13">Doc IDs descend by popularity → <tspan class="mono">bucket 0</tspan> is the top-K, fetched</text>
  <text x="512" y="344" class="note" font-size="13">eagerly; deeper buckets only when a page needs them.</text>


  <rect x="32" y="384" width="916" height="86" rx="8" fill="#f8fafc" stroke="#cbd5e1"></rect>
  <text x="48" y="406" class="note" font-weight="700">Reader</text>
  <text x="120" y="406" class="note">— boot, then a couple of ranged reads per query.</text>
  <text x="48" y="426" class="note" font-size="13"><tspan font-weight="700" fill="#3b5bdb">boot</tspan>  header (16 B) + sparse index → kept in memory, ~tens of KB.</text>
  <text x="48" y="446" class="note" font-size="13"><tspan font-weight="700" fill="#64748b">per query</tspan>  binary-search the sparse index → fetch one dictionary block → each trigram's eager prefix (bucket 0), AND smallest-first.</text>
  <text x="48" y="462" class="note" font-size="12" fill="#94a3b8">deeper buckets fetched only when a page needs more than bucket 0&#39;s top-K.</text>

  <text x="32" y="500" class="sub">Boot is ~tens of KB; each query is a handful of small ranged reads — independent of corpus size.</text>
  <text x="32" y="528" class="note" font-size="11"><tspan font-weight="700" fill="#3b5bdb">Rust</tspan>  <tspan class="mono">write  build::write_index(w, gram, stride, entries)      read  Index::open(f).search(q, limit)</tspan></text>
</svg>