<svg xmlns="http://www.w3.org/2000/svg" viewBox="0 0 980 452" font-family="-apple-system, BlinkMacSystemFont, &#39;Segoe UI&#39;, Roboto, sans-serif" role="img" aria-label="RRIL DOI lookup file layout and binary search">
  <defs>
    <marker id="arL" markerWidth="9" markerHeight="9" refX="7" refY="4" orient="auto">
      <path d="M0,0 L8,4 L0,8 z" fill="#475569"></path>
    </marker>
  </defs>

  <text x="32" y="38" class="title">DOI lookup — an exact identifier straight to a doc ID (<tspan class="mono">.rril</tspan>)</text>
  <text x="32" y="60" class="sub">paste a DOI or a doi.org URL; a handful of 16-byte ranged reads land on the exact work — no text search</text>

  <rect x="700" y="26" width="12" height="12" rx="3" fill="#3b5bdb"></rect>
  <text x="718" y="36" class="note">loaded at boot</text>
  <rect x="828" y="26" width="12" height="12" rx="3" fill="#64748b"></rect>
  <text x="846" y="36" class="note">range-fetched</text>

  <text x="32" y="96" class="lbl mono" font-weight="700">work.rril — identifier index, sorted by hash</text>
  <rect x="32" y="106" width="150" height="50" rx="6" fill="#3b5bdb"></rect>
  <text x="107" y="128" class="seg" text-anchor="middle">Header</text>
  <text x="107" y="144" class="seg mono" text-anchor="middle" font-size="11">16 B</text>
  <rect x="186" y="106" width="762" height="50" rx="6" fill="#64748b"></rect>
  <text x="567" y="128" class="seg" text-anchor="middle">Records — fixed 16 B each, sorted by hash64(doi)</text>
  <text x="567" y="144" class="seg mono" text-anchor="middle" font-size="11">hash64 u64 · verify u32 · docId u32</text>
  <text x="32" y="176" class="lbl mono">magic &#34;RRIL&#34; · ver · count N</text>

  <text x="32" y="214" class="lbl" font-weight="700">binary-search the sorted hashes — halve the window per 16 B probe</text>
  <text x="948" y="214" class="note mono" text-anchor="end" font-size="11" fill="#94a3b8">≈ ⌈log₂ N⌉ ≈ 26 probes for 47.8M</text>

  <g>
    <rect x="32" y="230" width="54" height="34" rx="4" fill="#f1f5f9" stroke="#cbd5e1"></rect>
    <rect x="89" y="230" width="54" height="34" rx="4" fill="#f1f5f9" stroke="#cbd5e1"></rect>
    <rect x="146" y="230" width="54" height="34" rx="4" fill="#f1f5f9" stroke="#cbd5e1"></rect>
    <rect x="203" y="230" width="54" height="34" rx="4" fill="#f1f5f9" stroke="#cbd5e1"></rect>
    <rect x="260" y="230" width="54" height="34" rx="4" fill="#edf0fd" stroke="#3b5bdb"></rect>
    <rect x="317" y="230" width="54" height="34" rx="4" fill="#edf0fd" stroke="#3b5bdb"></rect>
    <rect x="374" y="230" width="54" height="34" rx="4" fill="#edf0fd" stroke="#3b5bdb"></rect>
    <rect x="431" y="230" width="54" height="34" rx="4" fill="#edf0fd" stroke="#3b5bdb"></rect>
    <rect x="488" y="230" width="54" height="34" rx="4" fill="#3b5bdb" stroke="#3b5bdb"></rect>
    <rect x="545" y="230" width="54" height="34" rx="4" fill="#edf0fd" stroke="#3b5bdb"></rect>
    <rect x="602" y="230" width="54" height="34" rx="4" fill="#edf0fd" stroke="#3b5bdb"></rect>
    <rect x="659" y="230" width="54" height="34" rx="4" fill="#edf0fd" stroke="#3b5bdb"></rect>
    <rect x="716" y="230" width="54" height="34" rx="4" fill="#edf0fd" stroke="#3b5bdb"></rect>
    <rect x="773" y="230" width="54" height="34" rx="4" fill="#f1f5f9" stroke="#cbd5e1"></rect>
    <rect x="830" y="230" width="54" height="34" rx="4" fill="#f1f5f9" stroke="#cbd5e1"></rect>
    <rect x="887" y="230" width="54" height="34" rx="4" fill="#f1f5f9" stroke="#cbd5e1"></rect>
    <text x="515" y="251" class="seg mono" text-anchor="middle" font-size="11">probe</text>
  </g>

  <path d="M287,278 l-5,-9 l10,0 z" fill="#3b5bdb"></path>
  <text x="287" y="294" class="note mono" text-anchor="middle" font-size="11">lo</text>
  <path d="M515,278 l-5,-9 l10,0 z" fill="#3b5bdb"></path>
  <text x="515" y="294" class="note mono" text-anchor="middle" font-size="11">mid</text>
  <path d="M743,278 l-5,-9 l10,0 z" fill="#3b5bdb"></path>
  <text x="743" y="294" class="note mono" text-anchor="middle" font-size="11">hi</text>

  <rect x="32" y="312" width="916" height="124" rx="8" fill="#f1f5f9" stroke="#64748b"></rect>
  <text x="48" y="334" class="lbl" font-weight="700">resolve a DOI in four steps — each probe is one 16 B Range read</text>
  <text x="48" y="356" class="note mono">1.  normalize — strip the <tspan font-weight="700">doi.org / https</tspan> prefix, lower-case  →  hash64(doi)</text>
  <text x="48" y="374" class="note mono">2.  binary-search the record hashes  →  the candidate record</text>
  <text x="48" y="392" class="note mono">3.  verify — a second hash rejects collisions  (a miss → no result)</text>
  <text x="48" y="410" class="note mono">4.  docId  →  the record store renders the exact work</text>
  <text x="48" y="430" class="note">An exact identifier lands on an exact work — or nothing — without ever touching the text index.</text>
</svg>