<svg xmlns="http://www.w3.org/2000/svg" viewBox="0 0 980 576" font-family="-apple-system, BlinkMacSystemFont, 'Segoe UI', Roboto, sans-serif" role="img" aria-label="In-browser search via HTTP range reads">
  <defs>
    <style>
      .title{font-size:20px;font-weight:700;fill:#0f172a}
      .sub{font-size:13px;fill:#64748b}
      .box{font-size:13px;font-weight:700;fill:#0f172a}
      .step{font-size:12.5px;fill:#334155}
      .mono{font-family:ui-monospace,SFMono-Regular,Menlo,monospace}
      .seg{font-size:11px;font-weight:700;fill:#fff}
      .req{font-size:11.5px;fill:#475569}
      .wave{font-size:11px;font-weight:700;fill:#3b5bdb}
    </style>
    <marker id="a2" markerWidth="9" markerHeight="9" refX="7" refY="4" orient="auto"><path d="M0,0 L8,4 L0,8 z" fill="#3b5bdb"/></marker>
    <marker id="a3" markerWidth="9" markerHeight="9" refX="7" refY="4" orient="auto"><path d="M0,0 L8,4 L0,8 z" fill="#94a3b8"/></marker>
  </defs>

  <text x="32" y="38" class="title">In-browser search over HTTP range reads — no backend</text>
  <text x="32" y="60" class="sub">a query touches a few KB–MB and a near-constant number of round-trips, independent of corpus size</text>

  <!-- Browser / WASM reader -->
  <rect x="32" y="92" width="318" height="408" rx="10" fill="#eef2ff" stroke="#3b5bdb"/>
  <text x="52" y="120" class="box">Browser — WASM reader (Rust)</text>
  <line x1="52" y1="130" x2="330" y2="130" stroke="#c7d2fe"/>
  <text x="52" y="158" class="step"><tspan class="wave">①</tspan> boot once: read header + sparse</text>
  <text x="68" y="176" class="step">index → keep keys in memory (~50 KB)</text>
  <text x="52" y="208" class="step"><tspan class="wave">②</tspan> query <tspan class="mono">"lattes"</tspan> → trigrams</text>
  <text x="68" y="226" class="step mono" font-size="12">lat · att · tte · tes</text>
  <text x="52" y="258" class="step"><tspan class="wave">③</tspan> in-memory binary search → which</text>
  <text x="68" y="276" class="step">dictionary block holds each trigram</text>
  <text x="52" y="318" class="step"><tspan class="wave">④</tspan> deserialize roaring bitmaps,</text>
  <text x="68" y="336" class="step"><tspan class="mono">AND</tspan> them → top-K doc IDs</text>
  <text x="68" y="354" class="step" fill="#64748b">(2–14 µs compute)</text>
  <text x="52" y="396" class="step"><tspan class="wave">⑥</tspan> fetch record JSON for the page</text>
  <text x="68" y="414" class="step">→ render result cards</text>
  <rect x="52" y="438" width="278" height="46" rx="7" fill="#fff" stroke="#c7d2fe"/>
  <text x="64" y="458" class="req">the multi-GB file is <tspan font-weight="700">never</tspan> downloaded whole;</text>
  <text x="64" y="474" class="req">waves run in parallel via <tspan class="mono">Range:</tspan> requests</text>

  <!-- CloudFront + S3 file: colour = when each part is fetched -->
  <text x="700" y="84" class="box" text-anchor="middle">CloudFront → S3</text>
  <rect x="706" y="92" width="180" height="300" rx="8" fill="#fff" stroke="#cbd5e1"/>
  <rect x="706" y="92"  width="180" height="52" rx="8" fill="#3b5bdb"/>
  <rect x="706" y="148" width="180" height="92" fill="#64748b"/>
  <rect x="706" y="244" width="180" height="56" fill="#64748b"/>
  <rect x="706" y="304" width="180" height="84" rx="8" fill="#94a3b8"/>
  <text x="796" y="123" class="seg" text-anchor="middle">header + sparse index</text>
  <text x="796" y="198" class="seg" text-anchor="middle">dictionary</text>
  <text x="796" y="276" class="seg" text-anchor="middle">eager prefix</text>
  <text x="796" y="350" class="seg" text-anchor="middle">tail postings</text>
  <text x="796" y="410" class="sub mono" text-anchor="middle" font-size="11">index.rrs (multi-GB)</text>

  <!-- records file -->
  <rect x="706" y="438" width="180" height="46" rx="8" fill="#64748b"/>
  <text x="796" y="466" class="seg mono" text-anchor="middle" font-size="11">records.bin</text>

  <!-- range request arrows -->
  <line x1="350" y1="150" x2="704" y2="118" stroke="#3b5bdb" stroke-width="1.6" marker-end="url(#a2)"/>
  <text x="372" y="138" class="req"><tspan class="wave">①</tspan> GET <tspan class="mono">bytes=0-51k</tspan> (boot, once)</text>

  <line x1="350" y1="262" x2="704" y2="194" stroke="#3b5bdb" stroke-width="1.6" marker-end="url(#a2)"/>
  <text x="372" y="250" class="req"><tspan class="wave">③</tspan> GET dict blocks ×N (parallel)</text>

  <line x1="350" y1="322" x2="704" y2="272" stroke="#3b5bdb" stroke-width="1.6" marker-end="url(#a2)"/>
  <text x="372" y="312" class="req"><tspan class="wave">④</tspan> GET eager prefix ×N (parallel)</text>

  <line x1="350" y1="360" x2="704" y2="346" stroke="#94a3b8" stroke-width="1.6" stroke-dasharray="5 4" marker-end="url(#a3)"/>
  <text x="372" y="378" class="req" fill="#64748b"><tspan fill="#94a3b8" font-weight="700">⑤</tspan> GET tail postings — only if needed</text>

  <line x1="350" y1="402" x2="704" y2="460" stroke="#3b5bdb" stroke-width="1.6" marker-end="url(#a2)"/>
  <text x="372" y="420" class="req"><tspan class="wave">⑥</tspan> GET records (coalesced ranges)</text>

  <!-- colour legend -->
  <rect x="372" y="486" width="12" height="12" rx="3" fill="#3b5bdb"/>
  <text x="390" y="496" class="req">loaded at boot</text>
  <rect x="500" y="486" width="12" height="12" rx="3" fill="#64748b"/>
  <text x="518" y="496" class="req">range-fetched on demand</text>

  <text x="32" y="540" class="req"><tspan font-weight="700" fill="#3b5bdb">Rust</tspan>  <tspan class="mono">Catalog::open(f).with_facets(f).with_records(f, f).search(q, offset, len, max_missing, filter) → SearchPage { ids, records, facet_counts }</tspan></text>
</svg>
