<svg xmlns="http://www.w3.org/2000/svg" viewBox="0 0 980 548" font-family="-apple-system, BlinkMacSystemFont, 'Segoe UI', Roboto, sans-serif" role="img" aria-label="RRSF facet sidecar layout">
  <defs>
    <style>
      .title{font-size:20px;font-weight:700;fill:#0f172a}
      .sub{font-size:13px;fill:#64748b}
      .seg{font-size:13px;font-weight:700;fill:#fff}
      .lbl{font-size:12px;fill:#334155}
      .mono{font-family:ui-monospace,SFMono-Regular,Menlo,monospace}
      .note{font-size:12px;fill:#475569}
    </style>
    <marker id="arr" markerWidth="9" markerHeight="9" refX="7" refY="4" orient="auto">
      <path d="M0,0 L8,4 L0,8 z" fill="#475569"/>
    </marker>
  </defs>

  <text x="32" y="38" class="title">Facet sidecar — companion file (<tspan class="mono">.rrf</tspan>)</text>
  <text x="32" y="60" class="sub">categorical filters (year, type, language, …) with free counts — same range-fetch model as the index</text>

  <!-- file bar -->
  <g>
    <rect x="32"  y="86" width="84"  height="56" rx="6" fill="#6366f1"/>
    <rect x="120" y="86" width="120" height="56" rx="6" fill="#8b5cf6"/>
    <rect x="244" y="86" width="300" height="56" rx="6" fill="#0ea5e9"/>
    <rect x="548" y="86" width="110" height="56" rx="6" fill="#f59e0b"/>
    <rect x="662" y="86" width="286" height="56" rx="6" fill="#10b981"/>
    <text x="74"  y="112" class="seg" text-anchor="middle">Header</text>
    <text x="74"  y="128" class="seg mono" text-anchor="middle" font-size="11">24 B</text>
    <text x="180" y="112" class="seg" text-anchor="middle">Field table</text>
    <text x="180" y="128" class="seg mono" text-anchor="middle" font-size="11">16 B/field</text>
    <text x="394" y="112" class="seg" text-anchor="middle">Category table</text>
    <text x="394" y="128" class="seg mono" text-anchor="middle" font-size="11">36 B/category, key-sorted</text>
    <text x="603" y="112" class="seg" text-anchor="middle">Strings</text>
    <text x="603" y="128" class="seg mono" text-anchor="middle" font-size="11">names</text>
    <text x="805" y="112" class="seg" text-anchor="middle">Postings</text>
    <text x="805" y="128" class="seg mono" text-anchor="middle" font-size="11">per category, range-fetched</text>
  </g>

  <!-- header detail -->
  <text x="32" y="172" class="lbl mono">magic "RRSF" · ver · #fields · #cats · strBytes</text>
  <text x="120" y="190" class="note">Header + tables + strings (a few KB) load once at boot →</text>
  <text x="120" y="206" class="note">listing categories and their full-corpus counts is then free.</text>

  <!-- category entry callout -->
  <line x1="394" y1="142" x2="324" y2="250" stroke="#0ea5e9" stroke-width="1.5"/>
  <rect x="120" y="250" width="408" height="112" rx="8" fill="#f0f9ff" stroke="#0ea5e9"/>
  <text x="136" y="271" class="lbl" font-weight="700">one category entry (36 B)</text>
  <text x="136" y="291" class="lbl mono" font-size="12">key u64 · headOff u64 · headSize u32 · tailSize u32</text>
  <text x="136" y="309" class="lbl mono" font-size="12">cardinality u32 · nameOff u32 · nameLen u16</text>
  <rect x="132" y="322" width="384" height="30" rx="5" fill="#e0f2fe"/>
  <text x="142" y="342" class="note" font-weight="700">cardinality = full-corpus doc count → facet counts are free (no fetch)</text>

  <!-- postings callout: head/tail -->
  <line x1="805" y1="142" x2="805" y2="250" stroke="#10b981" stroke-width="1.5" marker-end="url(#arr)"/>
  <rect x="556" y="250" width="392" height="150" rx="8" fill="#ecfdf5" stroke="#10b981"/>
  <text x="572" y="272" class="lbl" font-weight="700">per category: <tspan class="mono">[ head ][ tail ]</tspan></text>
  <rect x="572" y="284" width="150" height="40" rx="5" fill="#10b981"/>
  <text x="647" y="303" class="seg" text-anchor="middle" font-size="12">head</text>
  <text x="647" y="318" class="seg mono" text-anchor="middle" font-size="10">docs [0, 65536)</text>
  <rect x="726" y="284" width="206" height="40" rx="5" fill="#94a3b8"/>
  <text x="829" y="303" class="seg" text-anchor="middle" font-size="12">tail</text>
  <text x="829" y="318" class="seg mono" text-anchor="middle" font-size="10">docs ≥ 65536</text>
  <text x="572" y="346" class="note">Identical split to the index: filtering the visible top-K</text>
  <text x="572" y="362" class="note">fetches one ≤ ~8 KB head per selected category.</text>
  <text x="572" y="382" class="note">Tails only when pagination crosses into them.</text>

  <!-- bottom note: filter semantics -->
  <rect x="32" y="410" width="916" height="68" rx="8" fill="#faf5ff" stroke="#8b5cf6"/>
  <text x="48" y="432" class="note" font-weight="700">Filter semantics — mirrors a BitmapFilter.</text>
  <text x="48" y="450" class="note">Within a field, selected categories OR together; distinct fields AND. Result = textMatch AND filter, applied to the head first.</text>
  <text x="48" y="468" class="note">Live (search-filtered) counts = |resultBitmap ∩ categoryHead|, computed in memory over the query's head result.</text>

  <text x="32" y="506" class="sub">Doc IDs share the index's popularity order, so facet postings split at the same 64K-doc bucket boundary and range-fetch the same way (see <tspan class="mono">format.svg</tspan>).</text>
</svg>
